# xmcd
#
# Track frame offsets:
#	150
#	9382
#	21538
#	31942
#	41450
#	53325
#	64114
#	79556
#	90664
#	108370
#	118774
#	131117
#	148931
#	155972
#	168209
#	185802
#	199733
#
# Disc length: 2847 seconds
#
# Revision: 1
# Processed by: cddbd v1.5PL3 Copyright (c) Steve Scherf et al.
# Submitted via: audiograbber 1.83.01
#
DISCID=e80b1d11
DTITLE=Miki Ryvola and Nezmari - Pisne Wabiho a Mikiho
DYEAR=2002
DGENRE=Country
TTITLE0=Hejno vran
TTITLE1=Fajnova zeme
TTITLE2=Jarni kuryr
TTITLE3=Lakani
TTITLE4=Letokruhy
TTITLE5=Proklata fordka
TTITLE6=Parta drsnejch dedku
TTITLE7=Samota
TTITLE8=Bal v lapaku
TTITLE9=Sedmnact dnu
TTITLE10=Socham breci na oboci
TTITLE11=Trail to Island
TTITLE12=Ja jsem tak linej
TTITLE13=To bude asi tim
TTITLE14=Osamely mesto
TTITLE15=Brehy me duse jsou pokryty
TTITLE16=Tak uz mi ma holka mava
EXTD=
EXTT0=
EXTT1=
EXTT2=
EXTT3=
EXTT4=
EXTT5=
EXTT6=
EXTT7=
EXTT8=
EXTT9=
EXTT10=
EXTT11=
EXTT12=
EXTT13=
EXTT14=
EXTT15=
EXTT16=
PLAYORDER=
